<svg width="92" height="95" viewBox="0 0 92 95" fill="none" xmlns="http://www.w3.org/2000/svg">
<g filter="url(#filter0_d_199_4180)">
<rect x="30.0004" y="21" width="32" height="4" fill="white"/>
<rect x="30.0004" y="73" width="32" height="4" fill="white"/>
<rect x="26" y="25" width="40" height="4" fill="white"/>
<rect x="26" y="69" width="40" height="4" fill="white"/>
<rect x="21.9996" y="29" width="48" height="4" fill="white"/>
<rect x="21.9996" y="65" width="48" height="4" fill="white"/>
<rect x="17.9993" y="33" width="56" height="32" fill="white"/>
<rect x="17.9993" y="21" width="8" height="8" fill="#FA345D"/>
<rect x="66" y="21" width="8" height="8" fill="#FA345D"/>
<rect x="17.9993" y="69" width="8" height="8" fill="#FA345D"/>
<rect x="66" y="69" width="8" height="8" fill="#FA345D"/>
<rect x="10.0004" y="29" width="8" height="40" fill="#FA345D"/>
<rect x="74.0007" y="29" width="8" height="40" fill="#FA345D"/>
<rect x="26" y="13" width="40" height="8" fill="#FA345D"/>
<rect x="26" y="77" width="40" height="8" fill="#FA345D"/>
<rect x="74.0007" y="29" width="4" height="4" transform="rotate(-90 74.0007 29)" fill="#FA345D"/>
<rect x="17.9993" y="69" width="4" height="4" transform="rotate(90 17.9993 69)" fill="#FA345D"/>
<rect x="66" y="21" width="4" height="4" transform="rotate(-90 66 21)" fill="#FA345D"/>
<rect x="26" y="77" width="4" height="4" transform="rotate(90 26 77)" fill="#FA345D"/>
<rect x="61.9996" y="25" width="4" height="4" transform="rotate(-90 61.9996 25)" fill="#FA345D"/>
<rect x="30.0004" y="73" width="3.99999" height="4" transform="rotate(90 30.0004 73)" fill="#FA345D"/>
<rect x="26" y="25" width="4" height="4" transform="rotate(-90 26 25)" fill="#FA345D"/>
<rect x="66" y="73" width="3.99999" height="4" transform="rotate(90 66 73)" fill="#FA345D"/>
<rect x="17.9993" y="33" width="4" height="4" transform="rotate(-90 17.9993 33)" fill="#FA345D"/>
<rect x="74.0007" y="65" width="4" height="4" transform="rotate(90 74.0007 65)" fill="#FA345D"/>
<rect x="14.0007" y="29" width="4" height="4" transform="rotate(-90 14.0007 29)" fill="#FA345D"/>
<rect x="77.9993" y="69" width="4" height="4" transform="rotate(90 77.9993 69)" fill="#FA345D"/>
<rect x="21.9996" y="21" width="4" height="4" transform="rotate(-90 21.9996 21)" fill="#FA345D"/>
<rect x="70.0004" y="77" width="4" height="4" transform="rotate(90 70.0004 77)" fill="#FA345D"/>
<rect x="70.0004" y="33" width="4" height="4" transform="rotate(-90 70.0004 33)" fill="#FA345D"/>
<rect x="21.9996" y="65" width="4" height="4" transform="rotate(90 21.9996 65)" fill="#FA345D"/>
<path d="M62.8701 37.265H59.3642V33.3486C59.3642 33.1574 59.2095 33 59.0156 33H32.7031C32.5119 33 32.3545 33.1546 32.3545 33.3486V37.265H28.8486C28.6574 37.265 28.5 37.4196 28.5 37.6136V59.7088C28.5 59.9 28.6546 60.0575 28.8486 60.0575H32.3433V64.6514C32.3433 64.8426 32.4979 65 32.6919 65H39.3691C39.5603 65 39.7177 64.8454 39.7177 64.6514V60.0575H51.9982V64.6514C51.9982 64.8426 52.1528 65 52.3468 65H59.024C59.2152 65 59.3726 64.8454 59.3726 64.6514V60.0575H62.8757C63.0669 60.0575 63.2243 59.9028 63.2243 59.7088V37.6136C63.2243 37.4224 63.0697 37.265 62.8757 37.265H62.8701ZM51.9953 55.039H39.7261V41.4316H51.9953V55.039Z" fill="#FA345D"/>
<path d="M43.081 50.8809H40.5591V53.5293H43.081V50.8809Z" fill="#FA345D"/>
<path d="M50.2948 50.8809H47.7729V53.5293H50.2948V50.8809Z" fill="#FA345D"/>
<g filter="url(#filter1_d_199_4180)">
<path d="M28.3466 12.5038C28.2756 12.5245 28.201 12.5658 28.2116 12.6415C28.3182 13.4673 27.9416 14.2553 28.0197 15.0777C28.0091 15.1499 28.002 15.2256 27.9913 15.2979C27.8349 15.3736 27.8385 15.4493 27.9913 15.5284C27.9913 15.5973 27.9913 15.6661 27.9949 15.7349C28.0339 16.8395 28.1441 16.7087 29.0218 16.2683C29.53 16.0136 30.063 15.7934 30.5534 15.5044C30.66 15.439 30.827 15.3839 30.8945 15.5147C30.9372 15.5973 30.8341 15.728 30.7311 15.8003C30.198 16.1891 29.6686 16.5917 29.1284 16.9702C28.6309 17.3212 28.5847 17.4451 29.0538 17.7961C29.5122 18.1402 30.0239 18.443 30.66 18.3604C30.7311 18.701 31.1077 18.6219 31.2783 18.6597C31.9144 18.8008 32.5043 19.0658 33.1297 19.2275C33.4744 19.317 33.7906 19.5131 34.1104 19.6817C34.2704 19.7643 34.3094 19.8607 34.0891 19.9604C33.5063 20.2151 32.9165 20.1669 32.3266 20.0258C32.22 19.9983 32.1134 19.9467 31.9997 19.9604C31.4382 20.0224 30.9229 19.809 30.3899 19.7127C29.7148 19.5923 29.0431 19.5613 28.3715 19.7092C27.9806 19.7953 27.9238 19.9398 28.1192 20.2977C28.3928 20.7966 28.6629 21.299 28.9507 21.791C29.0254 21.9184 29.0502 22.0422 29.0538 22.1799C29.0467 22.2831 28.9969 22.3485 28.8832 22.3485C28.869 22.3106 28.8655 22.2625 28.837 22.2349C28.2862 21.6259 27.8136 20.9652 27.4227 20.2495C27.3303 20.0774 27.2451 20.1738 27.1704 20.2529C26.7902 20.659 26.5308 21.1132 26.378 21.6534C26.2963 21.9459 26.2465 22.2487 26.1364 22.5377C25.9054 23.1502 25.7348 23.7868 25.5394 24.4131C25.4328 24.42 25.3795 24.4785 25.3795 24.5817L25.2906 24.912C25.0597 24.9258 25.1663 25.1563 25.0597 25.2527C24.9992 25.3043 24.953 25.3903 24.8535 25.3559C24.7718 25.3284 24.786 25.2458 24.786 25.1804C24.786 24.7881 24.786 24.3924 24.786 24.0002C24.6936 23.2328 24.9957 22.5102 25.0312 21.7566C25.2693 21.0891 25.1378 20.4284 24.9708 19.7746C24.914 19.5578 24.7505 19.6232 24.5977 19.6989C23.919 20.0327 23.2331 20.3596 22.558 20.7003C22.4229 20.7691 22.3092 20.8069 22.1387 20.7347C22.4549 20.2942 22.9062 20.0258 23.3291 19.7299C23.6596 19.4993 23.9865 19.2619 24.3347 19.0623C24.6546 18.88 24.6048 18.7492 24.3703 18.5221C23.9829 18.1505 23.5103 17.9956 22.9951 17.9131C22.3661 17.6584 21.6909 17.5724 21.0442 17.39C20.9411 17.3763 20.8416 17.3625 20.7386 17.3487C20.6462 17.2145 20.5218 17.1423 20.3477 17.1732C19.7862 17.0803 19.2532 16.922 18.7273 16.5332C19.868 16.3577 20.9163 16.5814 21.9681 16.6605C22.0001 16.7018 22.0321 16.7775 22.0676 16.781C22.8707 16.8463 23.6773 16.8601 24.4804 16.7947C24.6368 16.781 24.8678 16.6537 24.7825 16.4334C24.6119 15.9861 24.4023 15.5525 24.118 15.1568C24.0469 14.8265 23.8195 14.5684 23.6916 14.2656C23.6489 14.1624 23.5636 14.0454 23.6773 13.9869C23.7697 13.9387 23.8763 14.0419 23.951 14.128C24.1784 14.3929 24.4058 14.6544 24.6332 14.916C24.8607 15.2222 25.0703 15.5353 25.3155 15.8278C25.6424 16.2201 25.8201 16.1994 26.1364 15.7693C26.577 15.1671 26.7405 14.4617 26.9181 13.7632C27.2273 12.8961 27.476 12.0049 27.8847 11.1722C27.9131 11.1102 27.9593 11.0552 27.9913 10.9967C28.0446 10.8969 28.0944 10.8005 28.24 10.8212C28.4071 10.8453 28.3751 10.9795 28.3751 11.0758C28.3751 11.5541 28.3644 12.0324 28.3573 12.5073L28.3466 12.5038Z" fill="#FCF9FB"/>
</g>
</g>
<defs>
<filter id="filter0_d_199_4180" x="-4" y="-1" width="100" height="100" filterUnits="userSpaceOnUse" color-interpolation-filters="sRGB">
<feFlood flood-opacity="0" result="BackgroundImageFix"/>
<feColorMatrix in="SourceAlpha" type="matrix" values="0 0 0 0 0 0 0 0 0 0 0 0 0 0 0 0 0 0 127 0" result="hardAlpha"/>
<feOffset/>
<feGaussianBlur stdDeviation="5"/>
<feComposite in2="hardAlpha" operator="out"/>
<feColorMatrix type="matrix" values="0 0 0 0 0 0 0 0 0 0 0 0 0 0 0 0 0 0 0.1 0"/>
<feBlend mode="normal" in2="BackgroundImageFix" result="effect1_dropShadow_199_4180"/>
<feBlend mode="normal" in="SourceGraphic" in2="effect1_dropShadow_199_4180" result="shape"/>
</filter>
<filter id="filter1_d_199_4180" x="17.6606" y="9.75169" width="17.6485" height="16.6792" filterUnits="userSpaceOnUse" color-interpolation-filters="sRGB">
<feFlood flood-opacity="0" result="BackgroundImageFix"/>
<feColorMatrix in="SourceAlpha" type="matrix" values="0 0 0 0 0 0 0 0 0 0 0 0 0 0 0 0 0 0 127 0" result="hardAlpha"/>
<feOffset/>
<feGaussianBlur stdDeviation="0.533333"/>
<feComposite in2="hardAlpha" operator="out"/>
<feColorMatrix type="matrix" values="0 0 0 0 0 0 0 0 0 0 0 0 0 0 0 0 0 0 0.3 0"/>
<feBlend mode="normal" in2="BackgroundImageFix" result="effect1_dropShadow_199_4180"/>
<feBlend mode="normal" in="SourceGraphic" in2="effect1_dropShadow_199_4180" result="shape"/>
</filter>
</defs>
</svg>
