<svg width="24" height="25" viewBox="0 0 24 25" fill="none" xmlns="http://www.w3.org/2000/svg">
<rect x="7.2002" y="4.60059" width="9.6" height="1.2" fill="white"/>
<rect x="7.2002" y="20.2002" width="9.6" height="1.2" fill="white"/>
<rect x="6" y="5.7998" width="12" height="1.2" fill="white"/>
<rect x="6" y="19" width="12" height="1.2" fill="white"/>
<rect x="4.80005" y="7" width="14.4" height="1.2" fill="white"/>
<rect x="4.80005" y="17.7998" width="14.4" height="1.2" fill="white"/>
<rect x="3.59985" y="8.2002" width="16.8" height="9.6" fill="white"/>
<rect x="3.59985" y="4.60059" width="2.4" height="2.4" fill="#45C1AD"/>
<rect x="18" y="4.60059" width="2.4" height="2.4" fill="#45C1AD"/>
<rect x="3.59985" y="19" width="2.4" height="2.4" fill="#45C1AD"/>
<rect x="18" y="19" width="2.4" height="2.4" fill="#45C1AD"/>
<rect x="1.2002" y="7" width="2.4" height="12" fill="#45C1AD"/>
<rect x="20.4004" y="7" width="2.4" height="12" fill="#45C1AD"/>
<rect x="6" y="2.2002" width="12" height="2.4" fill="#45C1AD"/>
<rect x="6" y="21.4004" width="12" height="2.4" fill="#45C1AD"/>
<rect x="20.4004" y="7" width="1.2" height="1.2" transform="rotate(-90 20.4004 7)" fill="#45C1AD"/>
<rect x="3.59985" y="19" width="1.2" height="1.2" transform="rotate(90 3.59985 19)" fill="#45C1AD"/>
<rect x="18" y="4.60059" width="1.2" height="1.2" transform="rotate(-90 18 4.60059)" fill="#45C1AD"/>
<rect x="6" y="21.4004" width="1.2" height="1.2" transform="rotate(90 6 21.4004)" fill="#45C1AD"/>
<rect x="16.8" y="5.7998" width="1.2" height="1.2" transform="rotate(-90 16.8 5.7998)" fill="#45C1AD"/>
<rect x="7.2002" y="20.2002" width="1.2" height="1.2" transform="rotate(90 7.2002 20.2002)" fill="#45C1AD"/>
<rect x="6" y="5.7998" width="1.2" height="1.2" transform="rotate(-90 6 5.7998)" fill="#45C1AD"/>
<rect x="18" y="20.2002" width="1.2" height="1.2" transform="rotate(90 18 20.2002)" fill="#45C1AD"/>
<rect x="3.59985" y="8.2002" width="1.2" height="1.2" transform="rotate(-90 3.59985 8.2002)" fill="#45C1AD"/>
<rect x="20.4004" y="17.7998" width="1.2" height="1.2" transform="rotate(90 20.4004 17.7998)" fill="#45C1AD"/>
<rect x="2.40039" y="7" width="1.2" height="1.2" transform="rotate(-90 2.40039 7)" fill="#45C1AD"/>
<rect x="21.5999" y="19" width="1.2" height="1.2" transform="rotate(90 21.5999 19)" fill="#45C1AD"/>
<rect x="4.80005" y="4.60059" width="1.2" height="1.2" transform="rotate(-90 4.80005 4.60059)" fill="#45C1AD"/>
<rect x="19.2002" y="21.4004" width="1.2" height="1.2" transform="rotate(90 19.2002 21.4004)" fill="#45C1AD"/>
<rect x="19.2002" y="8.2002" width="1.2" height="1.2" transform="rotate(-90 19.2002 8.2002)" fill="#45C1AD"/>
<rect x="4.80005" y="17.7998" width="1.2" height="1.2" transform="rotate(90 4.80005 17.7998)" fill="#45C1AD"/>
<path d="M17.061 9.47969H16.0093V8.30478C16.0093 8.24743 15.9629 8.2002 15.9047 8.2002H8.01094C7.95358 8.2002 7.90635 8.24658 7.90635 8.30478V9.47969H6.85459C6.79723 9.47969 6.75 9.52608 6.75 9.58428V16.2128C6.75 16.2702 6.79639 16.3174 6.85459 16.3174H7.90298V17.6956C7.90298 17.753 7.94937 17.8002 8.00756 17.8002H10.0107C10.0681 17.8002 10.1153 17.7538 10.1153 17.6956V16.3174H13.7994V17.6956C13.7994 17.753 13.8458 17.8002 13.904 17.8002H15.9072C15.9646 17.8002 16.0118 17.7538 16.0118 17.6956V16.3174H17.0627C17.1201 16.3174 17.1673 16.271 17.1673 16.2128V9.58428C17.1673 9.52692 17.1209 9.47969 17.0627 9.47969H17.061ZM13.7986 14.8119H10.1178V10.7297H13.7986V14.8119Z" fill="#45C1AD"/>
<path d="M11.1242 13.5645H10.3677V14.359H11.1242V13.5645Z" fill="#45C1AD"/>
<path d="M13.2885 13.5645H12.532V14.359H13.2885V13.5645Z" fill="#45C1AD"/>
<g filter="url(#filter0_d_163_6176)">
<path d="M6.70392 2.05154C6.6826 2.05773 6.66021 2.07012 6.66341 2.09283C6.69539 2.34058 6.58239 2.57698 6.60584 2.82369C6.60265 2.84537 6.60051 2.86808 6.59732 2.88976C6.55041 2.91247 6.55148 2.93518 6.59732 2.95893C6.59732 2.97957 6.59732 3.00022 6.59838 3.02086C6.61011 3.35223 6.64316 3.313 6.90647 3.18087C7.05892 3.10448 7.21883 3.03841 7.36594 2.9517C7.39792 2.93209 7.44803 2.91557 7.46828 2.9548C7.48107 2.97957 7.45016 3.0188 7.41924 3.04048C7.25934 3.15713 7.10049 3.2779 6.93845 3.39146C6.78921 3.49675 6.77535 3.53391 6.91607 3.63921C7.05359 3.74244 7.2071 3.83328 7.39792 3.80851C7.41924 3.9107 7.53225 3.88696 7.58342 3.89831C7.77424 3.94064 7.9512 4.02013 8.13883 4.06864C8.24224 4.09548 8.33712 4.15432 8.43306 4.20491C8.48103 4.22968 8.49276 4.25859 8.42666 4.28852C8.25183 4.36491 8.07487 4.35046 7.8979 4.30814C7.86592 4.29988 7.83394 4.28439 7.79982 4.28852C7.63139 4.3071 7.47681 4.2431 7.3169 4.2142C7.11435 4.17807 6.91287 4.16878 6.71138 4.21317C6.59412 4.23897 6.57706 4.28233 6.63569 4.38969C6.71778 4.53937 6.7988 4.69009 6.88515 4.83771C6.90754 4.8759 6.915 4.91306 6.91607 4.95435C6.91393 4.98532 6.89901 5.00494 6.8649 5.00494C6.86063 4.99358 6.85957 4.97913 6.85104 4.97087C6.6858 4.78815 6.54401 4.58995 6.42675 4.37524C6.39903 4.32362 6.37345 4.35253 6.35106 4.37627C6.23699 4.49808 6.15917 4.63434 6.11333 4.79641C6.08881 4.88416 6.07388 4.975 6.04084 5.06171C5.97154 5.24546 5.92037 5.43644 5.86174 5.62431C5.82976 5.62638 5.81377 5.64393 5.81377 5.6749L5.78712 5.774C5.71782 5.77813 5.7498 5.84729 5.71782 5.87619C5.6997 5.89168 5.68584 5.91749 5.65599 5.90716C5.63147 5.89891 5.63574 5.87413 5.63574 5.85452C5.63574 5.73684 5.63574 5.61812 5.63574 5.50044C5.60802 5.27024 5.69863 5.05345 5.70929 4.82738C5.78072 4.62712 5.74128 4.42892 5.69117 4.23278C5.67411 4.16774 5.62508 4.18736 5.57924 4.21007C5.37562 4.3102 5.16987 4.40827 4.96732 4.51047C4.92681 4.53111 4.8927 4.54247 4.84153 4.52079C4.93641 4.38866 5.07179 4.30814 5.19865 4.21936C5.2978 4.1502 5.39587 4.07897 5.50035 4.01909C5.59629 3.96438 5.58137 3.92515 5.51101 3.85702C5.39481 3.74554 5.25302 3.69908 5.09845 3.67431C4.90975 3.59792 4.7072 3.57211 4.51318 3.5174C4.48227 3.51327 4.45242 3.50914 4.4215 3.50501C4.39378 3.46475 4.35647 3.44307 4.30424 3.45236C4.1358 3.42449 3.97589 3.37701 3.81812 3.26036C4.16032 3.20771 4.4748 3.27481 4.79036 3.29855C4.79995 3.31094 4.80955 3.33365 4.82021 3.33468C5.06113 3.35429 5.30313 3.35842 5.54406 3.33881C5.59096 3.33468 5.66026 3.29649 5.63467 3.23042C5.5835 3.09622 5.5206 2.96615 5.43532 2.84744C5.414 2.74834 5.34577 2.67091 5.30739 2.58007C5.2946 2.5491 5.26901 2.51401 5.30313 2.49646C5.33084 2.482 5.36283 2.51297 5.38521 2.53878C5.45344 2.61827 5.52167 2.69672 5.5899 2.77518C5.65812 2.86705 5.72102 2.96099 5.79458 3.04873C5.89266 3.16642 5.94596 3.16022 6.04084 3.03119C6.17303 2.85053 6.22207 2.63891 6.27537 2.42936C6.36811 2.16922 6.44274 1.90185 6.56533 1.65204C6.57386 1.63346 6.58772 1.61694 6.59732 1.59939C6.61331 1.56945 6.62823 1.54055 6.67194 1.54674C6.72204 1.55397 6.71245 1.59423 6.71245 1.62313C6.71245 1.76662 6.70925 1.91011 6.70712 2.05257L6.70392 2.05154Z" fill="#FCF9FB"/>
</g>
<defs>
<filter id="filter0_d_163_6176" x="2.75145" y="0.479232" width="6.78787" height="6.49661" filterUnits="userSpaceOnUse" color-interpolation-filters="sRGB">
<feFlood flood-opacity="0" result="BackgroundImageFix"/>
<feColorMatrix in="SourceAlpha" type="matrix" values="0 0 0 0 0 0 0 0 0 0 0 0 0 0 0 0 0 0 127 0" result="hardAlpha"/>
<feOffset/>
<feGaussianBlur stdDeviation="0.533333"/>
<feComposite in2="hardAlpha" operator="out"/>
<feColorMatrix type="matrix" values="0 0 0 0 0 0 0 0 0 0 0 0 0 0 0 0 0 0 0.3 0"/>
<feBlend mode="normal" in2="BackgroundImageFix" result="effect1_dropShadow_163_6176"/>
<feBlend mode="normal" in="SourceGraphic" in2="effect1_dropShadow_163_6176" result="shape"/>
</filter>
</defs>
</svg>
